<svg width="16" height="22" viewBox="0 0 16 22" fill="none" xmlns="http://www.w3.org/2000/svg">
<path d="M12.0322 0.094102C12.1668 0.172113 12.2709 0.293452 12.3276 0.438297C12.3843 0.583141 12.3902 0.742929 12.3443 0.891557L9.86809 8.9376H14.437C14.5712 8.93755 14.7026 8.97681 14.8148 9.05055C14.927 9.12429 15.0151 9.22927 15.0684 9.35254C15.1216 9.47581 15.1376 9.61196 15.1143 9.7442C15.091 9.87644 15.0295 9.99896 14.9374 10.0967L3.93805 21.7835C3.83162 21.8967 3.69 21.9705 3.53626 21.9928C3.38253 22.0152 3.22574 21.9849 3.09147 21.9067C2.9572 21.8286 2.85335 21.7073 2.79685 21.5625C2.74036 21.4178 2.73455 21.2582 2.78037 21.1098L5.2566 13.0624H0.687735C0.553467 13.0624 0.422122 13.0232 0.309915 12.9494C0.197707 12.8757 0.109549 12.7707 0.0563231 12.6474C0.00309712 12.5242 -0.0128664 12.388 0.0104029 12.2558C0.0336722 12.1235 0.0951556 12.001 0.187264 11.9033L11.1866 0.21647C11.2929 0.10345 11.4343 0.0297125 11.5879 0.00724624C11.7414 -0.0152201 11.898 0.0149064 12.0322 0.0927271V0.094102ZM8.25946 14.5L6.18742 11.6874C6.29501 11.6874 6.40109 11.7127 6.49715 11.7611C6.59321 11.8096 6.67656 11.8799 6.74048 11.9664C6.80441 12.0529 6.84714 12.1533 6.86523 12.2593C6.88332 12.3654 12.8764 10.2097 12.8448 10.3125H8.93727C8.82968 10.3125 8.72359 10.2873 8.62754 10.2389C8.53148 10.1904 8.44813 10.1201 8.3842 10.0336C8.32027 9.94703 8.27755 9.8467 8.25946 9.74065C8.24137 9.63459 8.24842 9.52578 8.28005 9.42295L13.2697 10.3125L8.25946 14.5Z" fill="url(#paint0_linear_88_8)"/>
<defs>
<linearGradient id="paint0_linear_88_8" x1="0" y1="10.9471" x2="15.1247" y2="10.9471" gradientUnits="userSpaceOnUse">
<stop stop-color="#FF6543"/>
<stop offset="1" stop-color="#F0360D"/>
</linearGradient>
</defs>
</svg>
