<svg width="119" height="25" viewBox="0 0 119 25" fill="none" xmlns="http://www.w3.org/2000/svg">
<path d="M0.560059 24V1.28001H15.6961V4.44802H4.14406V11.232H13.8081V14.208H4.14406V24H0.560059Z" fill="white"/>
<path d="M25.1633 24.32C23.8406 24.32 22.6566 24.096 21.6113 23.648C20.566 23.1787 19.6593 22.5387 18.8913 21.728C18.1446 20.9173 17.5686 20 17.1633 18.976C16.758 17.9307 16.5553 16.8213 16.5553 15.648C16.5553 14.4747 16.758 13.3653 17.1633 12.32C17.5686 11.2747 18.1446 10.3573 18.8913 9.56801C19.6593 8.75735 20.566 8.12801 21.6113 7.68001C22.678 7.21068 23.862 6.97602 25.1633 6.97602C26.4646 6.97602 27.638 7.21068 28.6833 7.68001C29.75 8.12801 30.6566 8.75735 31.4033 9.56801C32.1713 10.3573 32.758 11.2747 33.1633 12.32C33.5686 13.3653 33.7713 14.4747 33.7713 15.648C33.7713 16.8213 33.5686 17.9307 33.1633 18.976C32.758 20 32.1713 20.9173 31.4033 21.728C30.6566 22.5387 29.75 23.1787 28.6833 23.648C27.638 24.096 26.4646 24.32 25.1633 24.32ZM20.1713 15.68C20.1713 16.7467 20.3953 17.7067 20.8433 18.56C21.2913 19.4133 21.8886 20.0853 22.6353 20.576C23.382 21.0667 24.2246 21.312 25.1633 21.312C26.0806 21.312 26.9126 21.0667 27.6593 20.576C28.4273 20.064 29.0353 19.3813 29.4833 18.528C29.9313 17.6533 30.1553 16.6933 30.1553 15.648C30.1553 14.5813 29.9313 13.6213 29.4833 12.768C29.0353 11.9147 28.4273 11.2427 27.6593 10.752C26.9126 10.24 26.0806 9.98401 25.1633 9.98401C24.2246 9.98401 23.382 10.24 22.6353 10.752C21.8886 11.264 21.2913 11.9467 20.8433 12.8C20.3953 13.632 20.1713 14.592 20.1713 15.68Z" fill="white"/>
<path d="M44.4133 24.32C43.0906 24.32 41.9066 24.096 40.8613 23.648C39.816 23.1787 38.9093 22.5387 38.1413 21.728C37.3946 20.9173 36.8186 20 36.4133 18.976C36.008 17.9307 35.8053 16.8213 35.8053 15.648C35.8053 14.4747 36.008 13.3653 36.4133 12.32C36.8186 11.2747 37.3946 10.3573 38.1413 9.56801C38.9093 8.75735 39.816 8.12801 40.8613 7.68001C41.928 7.21068 43.112 6.97602 44.4133 6.97602C45.7146 6.97602 46.888 7.21068 47.9333 7.68001C49 8.12801 49.9066 8.75735 50.6533 9.56801C51.4213 10.3573 52.008 11.2747 52.4133 12.32C52.8186 13.3653 53.0213 14.4747 53.0213 15.648C53.0213 16.8213 52.8186 17.9307 52.4133 18.976C52.008 20 51.4213 20.9173 50.6533 21.728C49.9066 22.5387 49 23.1787 47.9333 23.648C46.888 24.096 45.7146 24.32 44.4133 24.32ZM39.4213 15.68C39.4213 16.7467 39.6453 17.7067 40.0933 18.56C40.5413 19.4133 41.1386 20.0853 41.8853 20.576C42.632 21.0667 43.4746 21.312 44.4133 21.312C45.3306 21.312 46.1626 21.0667 46.9093 20.576C47.6773 20.064 48.2853 19.3813 48.7333 18.528C49.1813 17.6533 49.4053 16.6933 49.4053 15.648C49.4053 14.5813 49.1813 13.6213 48.7333 12.768C48.2853 11.9147 47.6773 11.2427 46.9093 10.752C46.1626 10.24 45.3306 9.98401 44.4133 9.98401C43.4746 9.98401 42.632 10.24 41.8853 10.752C41.1386 11.264 40.5413 11.9467 40.0933 12.8C39.6453 13.632 39.4213 14.592 39.4213 15.68Z" fill="white"/>
<path d="M65.2053 23.136C64.9066 23.2853 64.5333 23.4453 64.0853 23.616C63.6373 23.7867 63.1253 23.936 62.5493 24.064C61.9946 24.192 61.4186 24.256 60.8213 24.256C60.096 24.256 59.424 24.128 58.8053 23.872C58.1866 23.616 57.6853 23.2107 57.3013 22.656C56.9386 22.08 56.7573 21.344 56.7573 20.448V9.98401H54.5493V7.26402H56.7573V1.76001H60.2773V7.26402H63.9253V9.98401H60.2773V19.328C60.32 19.904 60.5013 20.3307 60.8213 20.608C61.1626 20.8853 61.5786 21.024 62.0693 21.024C62.56 21.024 63.0293 20.9387 63.4773 20.768C63.9253 20.5973 64.256 20.4587 64.4693 20.352L65.2053 23.136Z" fill="white"/>
<path d="M67.6753 0.640015H71.1953V19.168C71.1953 20.0213 71.3233 20.5653 71.5793 20.8C71.8353 21.0347 72.1553 21.152 72.5393 21.152C72.966 21.152 73.3606 21.1093 73.7233 21.024C74.1073 20.9387 74.438 20.832 74.7153 20.704L75.2273 23.488C74.7153 23.7013 74.1073 23.8827 73.4033 24.032C72.6993 24.1813 72.07 24.256 71.5153 24.256C70.3206 24.256 69.382 23.9253 68.6993 23.264C68.0166 22.5813 67.6753 21.6427 67.6753 20.448V0.640015Z" fill="white"/>
<path d="M76.0523 19.104C76.0523 18.0373 76.351 17.1093 76.9483 16.32C77.567 15.5093 78.4096 14.8907 79.4763 14.464C80.543 14.016 81.7803 13.792 83.1883 13.792C83.935 13.792 84.6923 13.8453 85.4603 13.952C86.2496 14.0587 86.943 14.2293 87.5403 14.464V13.408C87.5403 12.2347 87.1883 11.3173 86.4843 10.656C85.7803 9.99468 84.767 9.66401 83.4443 9.66401C82.5056 9.66401 81.6203 9.83468 80.7883 10.176C79.9563 10.496 79.071 10.9547 78.1323 11.552L76.9483 9.18401C78.0576 8.43735 79.167 7.88268 80.2763 7.52001C81.407 7.15735 82.591 6.97602 83.8283 6.97602C86.0683 6.97602 87.8283 7.57335 89.1083 8.76801C90.4096 9.94135 91.0603 11.616 91.0603 13.792V20.032C91.0603 20.4373 91.1243 20.7253 91.2523 20.896C91.4016 21.0667 91.647 21.1627 91.9883 21.184V24C91.6683 24.064 91.3803 24.1067 91.1243 24.128C90.8683 24.1493 90.655 24.16 90.4843 24.16C89.7376 24.16 89.1723 23.9787 88.7883 23.616C88.4043 23.2533 88.1803 22.8267 88.1163 22.336L88.0203 21.376C87.295 22.3147 86.367 23.04 85.2363 23.552C84.1056 24.064 82.9643 24.32 81.8123 24.32C80.703 24.32 79.711 24.096 78.8363 23.648C77.9616 23.1787 77.279 22.5493 76.7883 21.76C76.2976 20.9707 76.0523 20.0853 76.0523 19.104ZM86.7083 20.128C86.9643 19.8507 87.167 19.5733 87.3163 19.296C87.4656 19.0187 87.5403 18.7733 87.5403 18.56V16.64C86.943 16.4053 86.3136 16.2347 85.6523 16.128C84.991 16 84.3403 15.936 83.7003 15.936C82.4203 15.936 81.375 16.192 80.5643 16.704C79.775 17.216 79.3803 17.92 79.3803 18.816C79.3803 19.3067 79.5083 19.776 79.7643 20.224C80.0416 20.672 80.4256 21.0347 80.9163 21.312C81.4283 21.5893 82.0576 21.728 82.8043 21.728C83.5723 21.728 84.3083 21.5787 85.0123 21.28C85.7163 20.9813 86.2816 20.5973 86.7083 20.128Z" fill="white"/>
<path d="M115.632 7.26402H118.992L111.952 24H108.944L105.936 16.448L102.928 24H99.9203L92.8483 7.26402H96.2083L101.584 20.576L103.952 14.4L101.072 7.29601H104.048L105.936 12.512L107.792 7.29601H110.768L107.92 14.4L110.288 20.576L115.632 7.26402Z" fill="white"/>
</svg>
