<svg width="32" height="32" viewBox="0 0 32 32" fill="none" xmlns="http://www.w3.org/2000/svg">
<g clip-path="url(#clip0_36_6)">
<path d="M22.5019 0.135998C22.6977 0.249475 22.8491 0.425979 22.9316 0.636674C23.0141 0.847369 23.0226 1.0798 22.9559 1.296L19.3539 13H25.9999C26.1952 12.9999 26.3863 13.057 26.5495 13.1643C26.7127 13.2716 26.841 13.4243 26.9184 13.6036C26.9958 13.7829 27.019 13.9809 26.9852 14.1733C26.9513 14.3657 26.8619 14.5439 26.7279 14.686L10.7279 31.686C10.5731 31.8506 10.3671 31.958 10.1435 31.9905C9.91983 32.0231 9.69177 31.9789 9.49645 31.8652C9.30113 31.7516 9.15007 31.5751 9.06789 31.3646C8.98571 31.1541 8.97726 30.9219 9.04391 30.706L12.6459 19H5.99991C5.8046 19.0001 5.61354 18.943 5.45032 18.8357C5.2871 18.7284 5.15886 18.5757 5.08144 18.3964C5.00402 18.2171 4.9808 18.019 5.01464 17.8267C5.04849 17.6343 5.13793 17.4561 5.27191 17.314L21.2719 0.313998C21.4265 0.149597 21.6322 0.0423357 21.8555 0.00965557C22.0789 -0.0230245 22.3067 0.0207982 22.5019 0.133998V0.135998ZM8.31391 17H13.9999C14.1564 17 14.3107 17.0367 14.4505 17.1071C14.5902 17.1776 14.7114 17.2799 14.8044 17.4058C14.8974 17.5317 14.9596 17.6776 14.9859 17.8319C15.0122 17.9861 15.0019 18.1444 14.9559 18.294L12.2199 27.18L23.6839 15H17.9999C17.8434 15 17.6891 14.9633 17.5494 14.8929C17.4096 14.8224 17.2884 14.7201 17.1954 14.5942C17.1024 14.4683 17.0403 14.3224 17.014 14.1681C16.9876 14.0139 16.9979 13.8556 17.0439 13.706L19.7799 4.82L8.31391 17Z" fill="url(#paint0_linear_36_6)"/>
</g>
<defs>
<linearGradient id="paint0_linear_36_6" x1="4.99951" y1="15.923" x2="27.0003" y2="15.923" gradientUnits="userSpaceOnUse">
<stop stop-color="#FF6543"/>
<stop offset="1" stop-color="#F0360D"/>
</linearGradient>
<clipPath id="clip0_36_6">
<rect width="32" height="32" fill="white"/>
</clipPath>
</defs>
</svg>
