<svg width="32" height="32" viewBox="0 0 32 32" fill="none" xmlns="http://www.w3.org/2000/svg">
<g clip-path="url(#clip0_38_20)">
<path d="M0.0719633 5.63573C0.17067 5.38965 0.363066 5.19284 0.606847 5.08858C0.850628 4.98431 1.12584 4.98113 1.37196 5.07973L4.88596 6.48573C5.6011 6.77173 6.39883 6.77173 7.11396 6.48573L9.14196 5.67373C10.334 5.19689 11.6639 5.19689 12.856 5.67373L14.886 6.48573C15.6011 6.77173 16.3988 6.77173 17.114 6.48573L19.142 5.67373C20.334 5.19689 21.6639 5.19689 22.856 5.67373L24.886 6.48573C25.6011 6.77173 26.3988 6.77173 27.114 6.48573L30.628 5.07973C30.7504 5.02766 30.882 5.00056 31.0151 5.00001C31.1482 4.99946 31.28 5.02547 31.4029 5.07653C31.5258 5.12758 31.6373 5.20265 31.7308 5.29733C31.8243 5.39201 31.8979 5.5044 31.9475 5.62792C31.997 5.75144 32.0213 5.88359 32.0191 6.01665C32.0169 6.1497 31.9882 6.28097 31.9346 6.40277C31.881 6.52457 31.8036 6.63445 31.707 6.72597C31.6104 6.81748 31.4965 6.8888 31.372 6.93573L27.856 8.34173C26.6639 8.81858 25.334 8.81858 24.142 8.34173L22.114 7.52973C21.3988 7.24373 20.6011 7.24373 19.886 7.52973L17.856 8.34173C16.6639 8.81858 15.334 8.81858 14.142 8.34173L12.114 7.52973C11.3988 7.24373 10.6011 7.24373 9.88596 7.52973L7.85596 8.34173C6.66388 8.81858 5.33405 8.81858 4.14196 8.34173L0.627963 6.93573C0.38188 6.83703 0.18507 6.64463 0.0808067 6.40085C-0.0234566 6.15707 -0.0266375 5.88186 0.0719633 5.63573ZM0.0719633 11.6357C0.17067 11.3897 0.363066 11.1928 0.606847 11.0886C0.850628 10.9843 1.12584 10.9811 1.37196 11.0797L4.88596 12.4857C5.6011 12.7717 6.39883 12.7717 7.11396 12.4857L9.14196 11.6737C10.334 11.1969 11.6639 11.1969 12.856 11.6737L14.886 12.4857C15.6011 12.7717 16.3988 12.7717 17.114 12.4857L19.142 11.6737C20.334 11.1969 21.6639 11.1969 22.856 11.6737L24.886 12.4857C25.6011 12.7717 26.3988 12.7717 27.114 12.4857L30.628 11.0797C30.7504 11.0277 30.882 11.0006 31.0151 11C31.1482 10.9995 31.28 11.0255 31.4029 11.0765C31.5258 11.1276 31.6373 11.2026 31.7308 11.2973C31.8243 11.392 31.8979 11.5044 31.9475 11.6279C31.997 11.7514 32.0213 11.8836 32.0191 12.0166C32.0169 12.1497 31.9882 12.281 31.9346 12.4028C31.881 12.5246 31.8036 12.6344 31.707 12.726C31.6104 12.8175 31.4965 12.8888 31.372 12.9357L27.856 14.3417C26.6639 14.8186 25.334 14.8186 24.142 14.3417L22.114 13.5297C21.3988 13.2437 20.6011 13.2437 19.886 13.5297L17.856 14.3417C16.6639 14.8186 15.334 14.8186 14.142 14.3417L12.114 13.5297C11.3988 13.2437 10.6011 13.2437 9.88596 13.5297L7.85596 14.3417C6.66388 14.8186 5.33405 14.8186 4.14196 14.3417L0.627963 12.9357C0.38188 12.837 0.18507 12.6446 0.0808067 12.4008C-0.0234566 12.1571 -0.0266375 11.8819 0.0719633 11.6357ZM0.0719633 17.6357C0.17067 17.3897 0.363066 17.1928 0.606847 17.0886C0.850628 16.9843 1.12584 16.9811 1.37196 17.0797L4.88596 18.4857C5.6011 18.7717 6.39883 18.7717 7.11396 18.4857L9.14196 17.6737C10.334 17.1969 11.6639 17.1969 12.856 17.6737L14.886 18.4857C15.6011 18.7717 16.3988 18.7717 17.114 18.4857L19.142 17.6737C20.334 17.1969 21.6639 17.1969 22.856 17.6737L24.886 18.4857C25.6011 18.7717 26.3988 18.7717 27.114 18.4857L30.628 17.0797C30.7504 17.0277 30.882 17.0006 31.0151 17C31.1482 16.9995 31.28 17.0255 31.4029 17.0765C31.5258 17.1276 31.6373 17.2026 31.7308 17.2973C31.8243 17.392 31.8979 17.5044 31.9475 17.6279C31.997 17.7514 32.0213 17.8836 32.0191 18.0166C32.0169 18.1497 31.9882 18.281 31.9346 18.4028C31.881 18.5246 31.8036 18.6344 31.707 18.726C31.6104 18.8175 31.4965 18.8888 31.372 18.9357L27.856 20.3417C26.6639 20.8186 25.334 20.8186 24.142 20.3417L22.114 19.5297C21.3988 19.2437 20.6011 19.2437 19.886 19.5297L17.856 20.3417C16.6639 20.8186 15.334 20.8186 14.142 20.3417L12.114 19.5297C11.3988 19.2437 10.6011 19.2437 9.88596 19.5297L7.85596 20.3417C6.66388 20.8186 5.33405 20.8186 4.14196 20.3417L0.627963 18.9357C0.38188 18.837 0.18507 18.6446 0.0808067 18.4008C-0.0234566 18.1571 -0.0266375 17.8819 0.0719633 17.6357ZM0.0719633 23.6357C0.17067 23.3896 0.363066 23.1928 0.606847 23.0886C0.850628 22.9843 1.12584 22.9811 1.37196 23.0797L4.88596 24.4857C5.6011 24.7717 6.39883 24.7717 7.11396 24.4857L9.14196 23.6737C10.334 23.1969 11.6639 23.1969 12.856 23.6737L14.886 24.4857C15.6011 24.7717 16.3988 24.7717 17.114 24.4857L19.142 23.6737C20.334 23.1969 21.6639 23.1969 22.856 23.6737L24.886 24.4857C25.6011 24.7717 26.3988 24.7717 27.114 24.4857L30.628 23.0797C30.7504 23.0277 30.882 23.0006 31.0151 23C31.1482 22.9995 31.28 23.0255 31.4029 23.0765C31.5258 23.1276 31.6373 23.2026 31.7308 23.2973C31.8243 23.392 31.8979 23.5044 31.9475 23.6279C31.997 23.7514 32.0213 23.8836 32.0191 24.0166C32.0169 24.1497 31.9882 24.281 31.9346 24.4028C31.881 24.5246 31.8036 24.6344 31.707 24.726C31.6104 24.8175 31.4965 24.8888 31.372 24.9357L27.856 26.3417C26.6639 26.8186 25.334 26.8186 24.142 26.3417L22.114 25.5297C21.3988 25.2437 20.6011 25.2437 19.886 25.5297L17.856 26.3417C16.6639 26.8186 15.334 26.8186 14.142 26.3417L12.114 25.5297C11.3988 25.2437 10.6011 25.2437 9.88596 25.5297L7.85596 26.3417C6.66388 26.8186 5.33405 26.8186 4.14196 26.3417L0.627963 24.9357C0.38188 24.837 0.18507 24.6446 0.0808067 24.4008C-0.0234566 24.1571 -0.0266375 23.8819 0.0719633 23.6357Z" fill="url(#paint0_linear_38_20)"/>
</g>
<defs>
<linearGradient id="paint0_linear_38_20" x1="0.000244141" y1="15.7975" x2="32.0193" y2="15.7975" gradientUnits="userSpaceOnUse">
<stop stop-color="#FF6543"/>
<stop offset="1" stop-color="#F0360D"/>
</linearGradient>
<clipPath id="clip0_38_20">
<rect width="32" height="32" fill="white"/>
</clipPath>
</defs>
</svg>
